<?xml version="1.0" encoding="utf-8"?>
<!-- Generator: Adobe Illustrator 26.0.1, SVG Export Plug-In . SVG Version: 6.00 Build 0)  -->
<svg version="1.1" id="Layer_1" xmlns="http://www.w3.org/2000/svg" xmlns:xlink="http://www.w3.org/1999/xlink" x="0px" y="0px"
	 viewBox="0 0 223.21 205.68" style="enable-background:new 0 0 223.21 205.68;" xml:space="preserve">
<style type="text/css">
	.st0{fill:#FFFFFF;}
</style>
<g>
	<path class="st0" d="M223.15,29.84c-0.15-0.9-0.54-1.8-1-2.6c-3.91-6.7-9.6-11.3-16.93-13.68C194.06,9.93,182.85,6.49,171.66,3
		c-5.97-1.86-12.03-3.47-18.35-2.88c-18.5,1.75-31.96,10.78-39.48,27.99c-3.98,9.1-5.16,18.8-5.2,28.64
		c-0.02,4.64,0.33,9.29,0.56,13.93c0.06,1.32-0.19,2.37-1.32,3.25c-1.89,1.46-3.67,3.07-5.5,4.6c-3.24,2.71-6.48,5.4-9.85,8.2
		c-0.41-0.57-0.72-0.97-1-1.4c-14.15-21.84-28.3-43.68-42.46-65.51c-1.76-2.72-3.47-5.49-5.34-8.13c-2.19-3.08-6.5-2.64-8.09,0.8
		c-0.45,0.97-0.66,2.13-0.67,3.21c-0.06,10.8-0.06,21.6-0.06,32.4c-0.01,42.48,0,84.96,0,127.44c0,0.38,0.01,0.77,0,1.15
		c-0.03,1.34-0.5,2.5-1.49,3.42c-6.1,5.76-12.89,10.5-20.55,13.95c-1.95,0.88-3.96,1.36-6.09,0.91c-2.5-0.53-4.36,0.5-5.75,2.43
		c-1.29,1.79-1.36,3.75-0.17,5.64c1.29,2.07,3.25,2.79,5.59,2.57c0.89-0.08,1.77-0.33,2.66-0.38c8.74-0.55,17.24-2.26,25.54-5.04
		c17.45-5.86,33.22-14.8,47.88-25.84c12.52-9.43,23.8-20.21,34.51-31.61c16.91-17.99,32-37.41,45.16-58.31
		c4.97-7.9,9.61-16.02,14.41-24.04c0.44-0.72,0.94-1.41,1.42-2.11c0.32,0.45,0.36,0.73,0.36,1.01c0,5.68,0.09,11.36-0.02,17.04
		c-0.12,6.07-0.81,12.08-2.39,17.97c-4.68,17.48-12.73,33.32-23.12,48.05c-4.67,6.62-9.43,13.2-13.79,20.02
		c-4.96,7.78-7.3,16.28-5.75,25.62c1.37,8.25,7.27,14.93,15.2,16.88c4.24,1.04,8.57,0.82,12.86,0.52c1.8-0.13,3.17-1.21,4.06-2.8
		c2.02-3.6-0.92-7.87-5.39-7.79c-2.52,0.05-5.03,0.18-7.54,0.34c-1.98,0.12-3.72-0.42-5.2-1.72c-1.93-1.7-3.32-3.77-4.04-6.26
		c-0.99-3.39-0.66-6.76,0.14-10.12c1.55-6.58,4.98-12.2,8.99-17.52c9.55-12.66,18.23-25.87,25.13-40.19c0.17-0.36,0.44-0.67,0.66-1
		c0.29,0.52,0.29,0.97,0.29,1.41c-0.02,8.41-0.05,16.82-0.05,25.23c-0.01,14.47-0.02,28.95,0.02,43.42
		c0.01,1.82,0.21,3.67,0.51,5.47c0.89,5.36,6.08,11.38,12.53,11.5c2.09,0.04,4.18,0.14,6.27,0.13c2.86-0.01,5.23-2.16,5.49-4.89
		c0.26-2.71-1.58-5.11-4.52-5.56c-1.31-0.2-2.71,0.03-4.05,0.15c-3.43,0.31-5.6-1.27-6.2-4.65c-0.15-0.83-0.17-1.7-0.17-2.55
		c-0.04-9.82-0.07-19.64-0.09-29.45c-0.03-18.7-0.06-37.4-0.08-56.09c-0.01-10.93-0.01-21.86,0-32.79
		c0.01-8.11,0.06-16.22,0.08-24.33c0.01-1.68,0.48-3.06,1.98-4.04c8.38-5.49,17.6-8.31,27.59-8.74c1.19-0.05,2.4-0.03,3.57-0.22
		C222.82,32.11,223.41,31.34,223.15,29.84z M118.52,52.17c0.21-7.62,1.73-14.96,4.97-21.92c5.95-12.78,19.15-20.8,33.18-20.24
		c5.74,0.23,11.04,2,16.32,3.97c2.52,0.94,5.02,1.92,7.52,2.88c0.3,0.12,0.59,0.28,1.29,0.61c-7.98,1.93-14.51,5.93-20.96,10.65
		c0.34-2.88,0.98-5.65-1.44-7.68c-1.74-1.46-3.73-2.41-6.09-2.24c-3.05,0.23-5.56,3.54-5.38,7.03c0.24,4.46,2.93,6.24,9.42,6
		c-11.65,13.01-23.23,25.72-38.38,34.47c-0.16-0.05-0.32-0.09-0.47-0.14C118.5,61.09,118.4,56.63,118.52,52.17z M45.15,32.95
		c0.45,0.59,0.7,0.88,0.91,1.2c8.96,13.67,17.9,27.34,26.85,41c4.11,6.28,8.22,12.57,12.35,18.84c0.36,0.55,0.54,0.98,0.08,1.59
		c-10.68,14.03-18.23,29.9-26.73,45.22c-4.02,7.23-8.19,14.38-12.3,21.56c-0.25,0.44-0.58,0.82-0.87,1.24
		c-0.09-0.03-0.19-0.06-0.29-0.09V32.95z M107.23,138.63c-10.5,10.7-21.4,20.96-33.53,29.83c-10.17,7.43-20.96,13.74-32.65,18.49
		c-0.32,0.13-0.63,0.26-0.96,0.37c-0.07,0.02-0.16-0.02-0.37-0.06c0.65-0.74,1.26-1.43,1.87-2.12c8.1-9.01,14.46-19.18,20.14-29.83
		c6.06-11.36,12.09-22.74,18.45-33.94c3.17-5.58,7.04-10.77,10.6-16.13c0.25-0.39,0.58-0.72,1-1.24
		c6.78,9.89,13.51,19.68,20.3,29.59C110.46,135.27,108.87,136.97,107.23,138.63z M203.14,25.42c-12.65,1.89-22.12,8.64-28.72,19.37
		c-4.55,7.41-8.7,15.07-12.99,22.63c-7.12,12.53-15.41,24.27-24.16,35.69c-5.4,7.04-11.03,13.91-16.56,20.84
		c-0.5,0.63-1.08,1.21-1.75,1.95c-7.01-10.36-13.92-20.56-20.9-30.87c2.17-1.9,4.32-3.76,6.46-5.63
		c7.59-6.65,15.74-12.58,24.09-18.19c10.46-7.03,19.55-15.52,28.08-24.72c3.3-3.56,6.79-6.97,10.4-10.22
		c7.45-6.71,16.51-9.72,26.3-10.82c3.26-0.36,6.55-0.54,9.82-0.79c0.42-0.03,0.85-0.01,1.27-0.01c0.01,0.14,0.02,0.29,0.04,0.43
		C204.06,25.19,203.61,25.34,203.14,25.42z"/>
	<path class="st0" d="M128.99,203.35c-1.47,1.93-3.45,2.63-5.88,2.22c-1.38-0.24-2.79-0.36-4.19-0.37c-6.74-0.04-13.48-0.06-20.22,0
		c-3.79,0.04-7.58,0.2-11.36,0.4c-3.65,0.19-6.4-2.12-6.32-5.44c0.07-2.74,2.99-5.24,5.95-5.23c6.22,0.04,12.45,0.01,18.67,0.01
		v0.17c6.18,0,12.37-0.01,18.55,0.01c2.19,0.01,4.19,0.49,5.26,2.68C130.39,199.73,130.29,201.64,128.99,203.35z"/>
</g>
</svg>
